<?xml version="1.0" standalone="no"?>
<!DOCTYPE svg PUBLIC "-//W3C//DTD SVG 20010904//EN"
 "http://www.w3.org/TR/2001/REC-SVG-20010904/DTD/svg10.dtd">
<svg version="1.0" xmlns="http://www.w3.org/2000/svg"
 width="1024.000000pt" height="1076.000000pt" viewBox="0 0 1024.000000 1076.000000"
 preserveAspectRatio="xMidYMid meet">

<g transform="translate(0.000000,1076.000000) scale(0.100000,-0.100000)"
fill="#70B5F5" stroke="none">
<path d="M3950 9194 c-630 -39 -1171 -221 -1640 -553 -273 -193 -561 -485
-767 -778 -87 -124 -228 -395 -298 -573 -82 -210 -144 -463 -182 -740 -17
-124 -18 -228 -18 -1310 0 -1270 -1 -1236 56 -1521 91 -456 269 -855 545
-1224 411 -550 1014 -941 1701 -1106 178 -43 356 -67 578 -80 251 -14 2419 -6
2555 10 442 51 829 173 1205 379 515 282 967 765 1226 1312 152 321 245 668
279 1045 14 150 13 2233 0 2400 -55 675 -353 1328 -829 1818 -69 71 -212 200
-266 239 -5 5 -35 27 -65 51 -380 296 -833 489 -1372 582 -276 48 -275 47
-1493 50 -638 1 -1185 0 -1215 -1z m1475 -1472 c99 -33 340 -115 535 -182 195
-67 400 -137 455 -155 118 -38 506 -173 690 -240 72 -26 148 -53 171 -61 46
-17 101 -66 116 -104 14 -37 11 -125 -6 -157 -8 -16 -25 -39 -39 -51 -28 -26
-35 -29 -437 -172 -151 -54 -286 -103 -300 -109 -14 -6 -110 -41 -215 -77
-176 -62 -466 -165 -845 -300 -166 -60 -270 -89 -353 -99 -76 -10 -208 11
-322 51 -55 19 -127 43 -160 54 -33 10 -157 53 -275 95 -118 42 -267 95 -330
117 -213 75 -265 96 -265 107 0 6 18 30 40 52 43 45 86 67 300 154 275 112
353 144 540 222 105 44 253 106 330 137 160 66 189 89 182 148 -12 95 -88 123
-197 72 -49 -23 -521 -222 -840 -354 -381 -158 -420 -179 -534 -296 -139 -142
-226 -387 -226 -638 0 -114 2 -125 44 -255 88 -269 119 -521 98 -808 -12 -180
-20 -211 -64 -243 -59 -44 -84 -41 -423 43 -150 37 -173 46 -202 74 -33 34
-50 85 -40 125 6 23 16 40 130 224 106 172 195 396 217 549 5 39 10 161 10
272 0 158 4 223 19 300 23 113 68 239 112 307 16 26 27 51 24 55 -2 5 -26 14
-52 21 -62 17 -340 118 -375 136 -104 54 -117 218 -24 289 17 13 124 56 236
95 373 131 592 208 865 305 149 53 308 110 355 125 47 16 164 58 260 93 161
59 366 129 415 141 11 3 61 3 110 2 79 -3 112 -11 270 -64z m1010 -1554 c3
-18 14 -103 25 -188 11 -85 36 -279 56 -430 20 -151 37 -323 38 -381 1 -101 0
-107 -29 -154 -111 -181 -519 -338 -1011 -391 -188 -20 -611 -14 -779 11 -463
69 -804 208 -918 373 -45 64 -49 91 -32 252 9 80 20 188 25 240 5 52 16 151
24 220 8 69 22 202 32 295 9 94 18 171 19 173 2 2 155 -48 341 -112 551 -186
675 -227 744 -241 84 -19 238 -19 332 -1 68 13 482 149 918 300 102 36 190 65
197 65 7 1 15 -14 18 -31z m-3571 -2163 c66 -17 126 -50 173 -95 41 -39 89
-119 77 -129 -11 -11 -121 -51 -137 -51 -7 0 -23 16 -36 35 -37 54 -119 90
-206 89 -79 -1 -126 -18 -177 -63 -129 -113 -122 -389 13 -504 74 -64 206 -74
306 -23 60 30 85 65 91 128 l5 48 -116 0 c-64 0 -118 3 -120 8 -2 4 -2 37 1
75 l4 67 194 0 194 0 2 -97 c1 -54 3 -118 4 -143 2 -76 -36 -137 -125 -201
-174 -125 -470 -100 -603 50 -96 107 -141 271 -118 429 28 197 164 345 347
381 75 14 163 12 227 -4z m2805 -12 c64 -22 146 -78 171 -117 11 -19 20 -36
20 -38 0 -6 -109 -88 -117 -88 -3 0 -25 18 -49 39 -114 106 -323 83 -324 -35
0 -56 53 -87 213 -124 111 -25 184 -61 235 -114 48 -50 62 -89 62 -170 0 -101
-57 -193 -148 -240 -52 -26 -137 -39 -238 -34 -139 7 -200 32 -281 115 -35 36
-63 70 -63 76 0 7 32 29 70 50 l70 37 36 -39 c65 -72 165 -103 267 -81 88 18
121 63 101 138 -10 35 -77 68 -207 102 -171 44 -218 71 -264 149 -22 36 -26
56 -26 115 -1 81 15 125 63 180 84 95 261 129 409 79z m-1749 -72 l0 -81 -130
0 -130 0 0 -374 0 -374 -63 -7 c-35 -4 -74 -5 -88 -3 l-24 3 0 367 c0 201 -4
370 -8 374 -4 5 -64 10 -132 12 l-125 4 0 78 0 78 350 1 350 2 0 -80z m260
-236 c5 -298 6 -312 28 -352 58 -110 222 -135 318 -51 20 18 41 43 47 57 8 17
14 138 17 340 l5 315 54 4 c30 2 69 1 88 -3 l35 -6 -4 -327 c-4 -316 -5 -329
-28 -385 -30 -74 -94 -140 -168 -175 -52 -25 -68 -27 -177 -27 -66 0 -138 6
-161 12 -61 19 -129 69 -164 121 -56 85 -60 113 -60 469 l0 324 83 -3 82 -3 5
-310z m2968 45 c52 -29 88 -80 102 -145 6 -29 9 -142 8 -275 l-3 -225 -77 -1
-78 0 0 199 c0 214 -7 262 -46 298 -33 31 -116 37 -164 12 -61 -31 -68 -62
-71 -291 -1 -111 -6 -207 -9 -213 -5 -6 -35 -9 -81 -6 l-74 3 -3 332 -2 332
80 0 80 0 0 -41 0 -41 42 36 c54 47 86 56 178 52 57 -2 86 -8 118 -26z m687 3
c45 -24 83 -61 114 -113 25 -42 27 -60 4 -60 -9 0 -40 -7 -68 -16 l-52 -17
-34 38 c-24 26 -47 39 -74 44 -111 20 -191 -46 -202 -167 -10 -115 38 -202
124 -220 25 -6 51 -9 57 -7 6 2 23 6 38 9 30 7 73 45 82 74 6 19 8 19 63 1 31
-11 63 -19 71 -19 34 0 -30 -119 -86 -158 -70 -50 -200 -66 -298 -37 -187 55
-275 295 -184 502 25 58 100 128 163 152 71 29 222 25 282 -6z m-1718 -66 c17
-45 55 -146 84 -224 29 -79 55 -143 58 -143 5 0 42 99 132 358 l32 93 81 -3
c75 -3 81 -5 78 -23 -5 -27 -98 -276 -211 -560 -58 -146 -102 -244 -122 -268
-55 -66 -145 -97 -243 -83 -45 7 -46 8 -46 45 0 21 3 53 6 70 6 30 9 31 56 31
27 0 62 7 78 15 29 15 70 79 70 110 0 15 -53 153 -160 410 -96 234 -99 242
-93 249 4 3 43 6 87 6 l81 0 32 -83z"/>
</g>
</svg>
